$MeshFormat
2.2 0 8
$EndMeshFormat
$PhysicalNames
4
2 1 "woofers"
2 2 "bmr"
2 92 "roundovers"
2 93 "enclosure"
$EndPhysicalNames
$Nodes
245
1 -0.1 0.249 0
2 -0.1 -0.249 0
3 -0.1 0.249 0.049
4 -0.1 -0.249 0.049
5 -0.099 -0.25 0
6 0.099 -0.25 0
7 0.1 -0.249 0
8 0.1 0.249 0
9 0.099 0.25 0
10 -0.099 0.25 0
11 -0.099 0.25 0.049
12 -0.099 -0.25 0.049
13 -0.099 -0.249 0.05
14 -0.099 0.249 0.05
15 0.099 0.25 0.049
16 0.099 -0.25 0.049
17 0.1 0.249 0.049
18 0.1 -0.249 0.049
19 0.099 -0.249 0.05
20 0.099 0.249 0.05
21 0.0525 -0.12 0.05
22 -0.034 0 0.05
23 0.0525 0.12 0.05
24 -0.1 0.1936666666666667 0
25 -0.1 0.1383333333333334 0
26 -0.1 0.08300000000000013 0
27 -0.1 0.02766666666666687 0
28 -0.1 -0.02766666666666645 0
29 -0.1 -0.08299999999999991 0
30 -0.1 -0.1383333333333333 0
31 -0.1 -0.1936666666666667 0
32 -0.1 0.1936666666666667 0.049
33 -0.1 0.1383333333333334 0.049
34 -0.1 0.08300000000000013 0.049
35 -0.1 0.02766666666666687 0.049
36 -0.1 -0.02766666666666645 0.049
37 -0.1 -0.08299999999999991 0.049
38 -0.1 -0.1383333333333333 0.049
39 -0.1 -0.1936666666666667 0.049
40 -0.09970710678118655 -0.2497071067811865 0
41 -0.04494266685014868 -0.25 0
42 0.007769278325013368 -0.25 0
43 0.0483504695314512 -0.25 0
44 0.07772878923396406 -0.25 0
45 0.09970710678118655 -0.2497071067811865 0
46 0.1 -0.2263422334049471 0
47 0.1 -0.1945184511163083 0
48 0.1 -0.1497348810603795 0
49 0.1 -0.09320045285221848 0
50 0.1 -0.03616704404351537 0
51 0.1 0.02086636476518766 0
52 0.1 0.07789977357389083 0
53 0.1 0.1349331823825938 0
54 0.1 0.1919665911912969 0
55 0.09970710678118655 0.2497071067811865 0
56 0.04949999999999995 0.25 0
57 -2.359223927328458e-16 0.25 0
58 -0.04950000000000018 0.25 0
59 -0.09970710678118655 0.2497071067811865 0
60 -0.09970710678118655 0.2497071067811865 0.049
61 -0.09970710678118655 -0.2497071067811865 0.049
62 -0.09970710678118655 -0.249 0.04970710678118655
63 -0.099 0.1936666666666667 0.05
64 -0.099 0.1383333333333334 0.05
65 -0.099 0.08300000000000013 0.05
66 -0.099 0.02766666666666687 0.05
67 -0.099 -0.02766666666666645 0.05
68 -0.099 -0.08299999999999991 0.05
69 -0.099 -0.1383333333333333 0.05
70 -0.099 -0.1936666666666667 0.05
71 -0.09970710678118655 0.249 0.04970710678118655
72 0.04949999999999995 0.25 0.049
73 -2.359223927328458e-16 0.25 0.049
74 -0.04950000000000018 0.25 0.049
75 -0.04494266685014868 -0.25 0.049
76 0.007769278325013368 -0.25 0.049
77 0.0483504695314512 -0.25 0.049
78 0.07772878923396406 -0.25 0.049
79 0.099 -0.25 0.01633333333333333
80 0.099 -0.25 0.03266666666666673
81 0.09970710678118655 0.2497071067811865 0.049
82 0.1 -0.249 0.01633333333333333
83 0.1 -0.249 0.03266666666666673
84 0.09970710678118655 -0.2497071067811865 0.049
85 0.1 -0.2263422334049471 0.049
86 0.1 -0.1945184511163083 0.049
87 0.1 -0.1497348810603795 0.049
88 0.1 -0.09320045285221848 0.049
89 0.1 -0.03616704404351537 0.049
90 0.1 0.02086636476518766 0.049
91 0.1 0.07789977357389083 0.049
92 0.1 0.1349331823825938 0.049
93 0.1 0.1919665911912969 0.049
94 -0.099 0.2497071067811865 0.04970710678118655
95 -0.099 -0.2497071067811865 0.04970710678118655
96 -0.04949999999999995 -0.249 0.05
97 2.359223927328458e-16 -0.249 0.05
98 0.04950000000000018 -0.249 0.05
99 0.099 -0.1936666666666667 0.05
100 0.099 -0.1383333333333334 0.05
101 0.099 -0.08300000000000013 0.05
102 0.099 -0.02766666666666687 0.05
103 0.099 0.02766666666666645 0.05
104 0.099 0.08299999999999991 0.05
105 0.099 0.1383333333333333 0.05
106 0.099 0.1936666666666667 0.05
107 0.04949999999999995 0.249 0.05
108 -2.359223927328458e-16 0.249 0.05
109 -0.04950000000000018 0.249 0.05
110 0.03273321459758358 -0.0789538471704285 0.05
111 -0.01168234903270641 -0.06881628461045423 0.05
112 -0.04730086556487697 -0.09722110369632812 0.05
113 -0.04730086556487702 -0.1427788963036717 0.05
114 -0.01168234903270656 -0.1711837153895457 0.05
115 0.0327332145975835 -0.1610461528295716 0.05
116 -0.04002416317026024 0.01250930371948846 0.05
117 -0.05356033494330098 0.01559884659490919 0.05
118 -0.06441550188643867 0.006942139825881008 0.05
119 -0.06441550188643877 -0.006942139825880819 0.05
120 -0.05356033494330109 -0.01559884659490916 0.05
121 -0.04002416317026029 -0.0125093037194885 0.05
122 0.03273321459758358 0.1610461528295715 0.05
123 -0.01168234903270641 0.1711837153895457 0.05
124 -0.04730086556487697 0.1427788963036719 0.05
125 -0.04730086556487702 0.09722110369632825 0.05
126 -0.01168234903270656 0.06881628461045428 0.05
127 0.0327332145975835 0.07895384717042843 0.05
128 0.099 0.2497071067811865 0.04970710678118655
129 0.099 -0.2497109519647763 0.04970324057319007
130 0.09970710678118655 0.249 0.04970710678118655
131 0.09971095196477632 -0.249 0.04970324057319007
132 -0.1 -0.05533333333333318 0.0245
133 -0.1 -0.1106666666666666 0.0245
134 -0.1 -0.2213333333333333 0.0245
135 -0.1 -0.166 0.0245
136 -0.1 2.220446049250313e-16 0.0245
137 -0.1 0.1660000000000001 0.0245
138 -0.1 0.1106666666666668 0.02450000000000001
139 -0.1 0.2213333333333334 0.0245
140 -0.1 0.05533333333333351 0.0245
141 0.02443704187176754 -0.2199430591152589 0
142 0.05691038760702988 -0.1246450407349566 0
143 -0.05041902709877039 0.1087612100147742 0
144 -0.05530854384323157 0.002327686851866168 0
145 0.05018893433378835 0.1677837163196862 0
146 0.04937633890319888 0.04101501911722524 0
147 -0.05204203005128724 -0.1713970175322516 0
148 -0.02543742004070955 0.2111431101760303 0
149 0.07797088690582685 -0.209768158395315 0
150 0.08836439461698201 -0.2383643946169808 0
151 -0.07197133342507434 -0.221971333425073 0
152 0.06749714908659396 -0.1718868382044204 0
153 0.02552901184388177 -0.1531686444291952 0
154 0.00746434540866104 -0.1073765077349494 0
155 0.05124581154777422 -0.06283289523624945 0
156 -0.007045919059231208 -0.05724645061026091 0
157 0.02741545932616079 -0.01394239880825437 0
158 -0.02078497482606363 -0.2150685081404501 0
159 0.07424999999999998 0.2242499999999994 0
160 -0.04987839745411667 -0.1099770811670574 0
161 0.05046888572024333 0.1057179389317959 0
162 0.001624020886061867 0.07789941080603391 0
163 -0.0003032436964185081 0.133092643547078 0
164 -0.05216084509223044 0.0545536068343347 0
165 0.02475025238217971 0.2130576267468824 0
166 -0.05005027643718873 0.168785604436685 0
167 -0.008176942107627986 0.02658265180064002 0
168 -0.05705371341863968 -0.05347920385375826 0
169 0.06303962938270764 -0.2306831656501121 0
170 -0.07419224422442254 0.2213333333333334 0
171 -0.01681995567765078 -0.1424861318105239 0
172 0.04152046158573883 -0.1938248229423584 0
173 0.0003065924577310812 -0.182648030661673 0
174 -0.0001703506916697489 0.1787725402452724 0
175 -0.01284465455470742 -0.0137005455554706 0
176 0.06903785032155646 -0.008583958881859701 0
177 0.02474999999999986 0.25 0.02450000000000001
178 0.07424999999999997 0.25 0.0245
179 -0.02475000000000022 0.25 0.0245
180 -0.07425000000000009 0.25 0.0245
181 0.08462660108994716 -0.25 0.02483699118433478
182 0.06775778641622576 -0.25 0.01507997194370398
183 0.04047061103535274 -0.25 0.02430648853048275
184 -0.01858669426256766 -0.25 0.0245
185 0.06788310865398717 -0.25 0.03384279749864248
186 0.08564769979557971 -0.25 0.03786929106992881
187 0.08562263534802741 -0.25 0.01125005929227442
188 -0.07197133342507434 -0.25 0.0245
189 0.1 -0.2329056006507044 0.02148614396481852
190 0.1 -0.2067726329768368 0.02135526120466805
191 0.1 -0.1739303919779988 0.02433627973785235
192 0.1 -0.121467666956299 0.02450000000000001
193 0.1 0.04938306916953927 0.0245
194 0.1 -0.06468374844786692 0.02449999999999999
195 0.1 0.2204832955956484 0.0245
196 0.1 -0.007650339639163839 0.0245
197 0.1 0.1634498867869454 0.0245
198 0.1 0.1064164779782423 0.0245
199 0.1 -0.2354944459080121 0.037059646778935
200 0.1 -0.2393119585139129 0.00945486932453796
201 0.1 -0.2202243954844088 0.03314542326318978
202 -0.09959065975209797 0.2495840779625884 0.04955675307890502
203 -0.09959065975209797 -0.2495840779625884 0.04955675307890502
204 -0.02695036160035539 0.01367350645431219 0.05
205 -0.02034918437002776 -0.006366333509666973 0.05
206 -0.004678999365963849 0.01561214457065969 0.05
207 0.006541449028162415 -0.01092879611585782 0.05
208 0.02208524955746086 0.01071008281960406 0.05
209 -0.04534640616412296 -0.02599607546190394 0.05
210 -0.0407274817277104 0.02543023190915028 0.05
211 -0.0137732679680067 -0.03426051387481878 0.05
212 -0.01982447470868921 0.03615994485962715 0.05
213 -0.08061498499260207 1.671116948524324e-16 0.05
214 -0.05946087044443098 0.02938605090368748 0.05
215 -0.05978918065354592 -0.02979556061599313 0.05
216 0.04433468541547526 -0.01796094920211469 0.05
217 -0.04149554487892627 -0.04783846885720358 0.05
218 -0.04199108978504008 0.05213944327133583 0.05
219 0.01792165814636261 0.2060552747698738 0.05
220 0.01792165814636261 -0.206055274769874 0.05
221 -0.0539844460835568 0.1876943542394711 0.05
222 -0.05398444608355695 -0.187694354239471 0.05
223 0.05977014765935784 0.01702426536939209 0.05
224 0.06224129894219722 -0.04862609357549903 0.05
225 -0.07188581147457782 0.05342557241758222 0.05
226 -0.07217984980700627 -0.05387420215334923 0.05
227 0.01795855990201654 0.04211229613633664 0.05
228 -0.02650254557457015 -0.2138423240304754 0.05
229 -0.02650254557457012 0.2138423240304753 0.05
230 0.02006583849711756 -0.04325774742486217 0.05
231 0.06731920833389293 0.05718662076598731 0.05
232 0.06080913057416674 -0.2018148463894114 0.05
233 0.06080913057416673 0.2018148463894114 0.05
234 -0.0772071428392692 0.01957321027020441 0.05
235 -0.07725250352013986 -0.01963575687720647 0.05
236 0.06880846903435005 0.1629721998437966 0.05
237 0.06880846903435005 -0.1629721998437966 0.05
238 -0.02940294798304689 -0.02421870676636732 0.05
239 -0.06983540731205383 0.2199595249935319 0.05
240 -0.06983540731205376 -0.2199595249935319 0.05
241 1.586032892321652e-17 0.12 0.05
242 1.288651725011342e-17 -0.12 0.05
243 -0.05 2.502958158195107e-17 0.05
244 0.09959065975209797 0.2495840779625884 0.04955675307890502
245 0.09958401797052979 -0.249590728187414 0.04955674340471431
$EndNodes
$Elements
486
1 2 2 93 1 37 36 132
2 2 2 93 1 28 29 132
3 2 2 93 1 29 30 133
4 2 2 93 1 38 37 133
5 2 2 93 1 31 2 134
6 2 2 93 1 4 39 134
7 2 2 93 1 30 31 135
8 2 2 93 1 39 38 135
9 2 2 93 1 27 28 136
10 2 2 93 1 34 33 138
11 2 2 93 1 25 26 138
12 2 2 93 1 36 35 136
13 2 2 93 1 1 24 139
14 2 2 93 1 32 3 139
15 2 2 93 1 35 34 140
16 2 2 93 1 24 25 137
17 2 2 93 1 26 27 140
18 2 2 93 1 33 32 137
19 2 2 93 1 29 37 132
20 2 2 93 1 37 29 133
21 2 2 93 1 38 30 135
22 2 2 93 1 2 4 134
23 2 2 93 1 33 25 138
24 2 2 93 1 34 26 140
25 2 2 93 1 36 28 132
26 2 2 93 1 28 36 136
27 2 2 93 1 30 38 133
28 2 2 93 1 39 31 134
29 2 2 93 1 3 1 139
30 2 2 93 1 32 24 137
31 2 2 93 1 24 32 139
32 2 2 93 1 25 33 137
33 2 2 93 1 26 34 138
34 2 2 93 1 35 27 136
35 2 2 93 1 31 39 135
36 2 2 93 1 27 35 140
37 2 2 93 2 151 147 158
38 2 2 93 2 172 141 173
39 2 2 93 2 156 154 160
40 2 2 93 2 156 160 168
41 2 2 93 2 158 147 173
42 2 2 93 2 153 172 173
43 2 2 93 2 146 157 167
44 2 2 93 2 8 54 159
45 2 2 93 2 50 49 155
46 2 2 93 2 159 145 165
47 2 2 93 2 162 143 163
48 2 2 93 2 148 166 170
49 2 2 93 2 24 1 170
50 2 2 93 2 50 155 176
51 2 2 93 2 141 158 173
52 2 2 93 2 143 162 164
53 2 2 93 2 157 146 176
54 2 2 93 2 163 143 166
55 2 2 93 2 46 7 150
56 2 2 93 2 41 5 151
57 2 2 93 2 2 31 151
58 2 2 93 2 48 47 152
59 2 2 93 2 142 152 153
60 2 2 93 2 49 48 142
61 2 2 93 2 142 48 152
62 2 2 93 2 155 157 176
63 2 2 93 2 54 145 159
64 2 2 93 2 149 46 150
65 2 2 93 2 6 44 150
66 2 2 93 2 31 30 147
67 2 2 93 2 162 146 167
68 2 2 93 2 10 58 170
69 2 2 93 2 47 149 152
70 2 2 93 2 41 151 158
71 2 2 93 2 42 41 158
72 2 2 93 2 56 9 159
73 2 2 93 2 47 46 149
74 2 2 93 2 147 30 160
75 2 2 93 2 43 42 141
76 2 2 93 2 153 152 172
77 2 2 93 2 161 162 163
78 2 2 93 2 145 161 163
79 2 2 93 2 166 24 170
80 2 2 93 2 145 53 161
81 2 2 93 2 161 146 162
82 2 2 93 2 49 142 155
83 2 2 93 2 163 166 174
84 2 2 93 2 52 146 161
85 2 2 93 2 52 51 146
86 2 2 93 2 54 53 145
87 2 2 93 2 53 52 161
88 2 2 93 2 30 29 160
89 2 2 93 2 26 25 143
90 2 2 93 2 28 27 144
91 2 2 93 2 27 26 164
92 2 2 93 2 31 147 151
93 2 2 93 2 26 143 164
94 2 2 93 2 144 27 164
95 2 2 93 2 25 24 166
96 2 2 93 2 160 29 168
97 2 2 93 2 155 156 157
98 2 2 93 2 58 57 148
99 2 2 93 2 160 154 171
100 2 2 93 2 168 144 175
101 2 2 93 2 155 154 156
102 2 2 93 2 43 141 169
103 2 2 93 2 57 56 165
104 2 2 93 2 143 25 166
105 2 2 93 2 28 144 168
106 2 2 93 2 44 43 169
107 2 2 93 2 148 57 165
108 2 2 93 2 156 168 175
109 2 2 93 2 164 162 167
110 2 2 93 2 142 154 155
111 2 2 93 2 146 51 176
112 2 2 93 2 142 153 154
113 2 2 93 2 149 150 169
114 2 2 93 2 166 148 174
115 2 2 93 2 144 164 167
116 2 2 93 2 29 28 168
117 2 2 93 2 150 44 169
118 2 2 93 2 1 10 170
119 2 2 93 2 7 6 150
120 2 2 93 2 5 2 151
121 2 2 93 2 58 148 170
122 2 2 93 2 56 159 165
123 2 2 93 2 147 160 171
124 2 2 93 2 167 157 175
125 2 2 93 2 169 141 172
126 2 2 93 2 145 163 174
127 2 2 93 2 149 169 172
128 2 2 93 2 141 42 158
129 2 2 93 2 165 145 174
130 2 2 93 2 152 149 172
131 2 2 93 2 154 153 171
132 2 2 93 2 9 8 159
133 2 2 93 2 157 156 175
134 2 2 93 2 51 50 176
135 2 2 93 2 148 165 174
136 2 2 93 2 147 171 173
137 2 2 93 2 144 167 175
138 2 2 93 2 171 153 173
139 2 2 93 2 7 45 6
140 2 2 93 2 59 10 1
141 2 2 93 2 9 55 8
142 2 2 93 2 5 40 2
143 2 2 93 3 60 1 3
144 2 2 93 3 59 1 60
145 2 2 93 3 11 10 60
146 2 2 93 3 10 59 60
147 2 2 93 4 4 2 40
148 2 2 93 4 4 40 61
149 2 2 93 4 61 5 12
150 2 2 93 4 40 5 61
151 2 2 93 5 70 39 62
152 2 2 93 5 32 63 71
153 2 2 93 5 71 3 32
154 2 2 93 5 62 39 4
155 2 2 93 5 13 70 62
156 2 2 93 5 14 71 63
157 2 2 93 5 32 33 63
158 2 2 93 5 34 64 33
159 2 2 93 5 33 64 63
160 2 2 93 5 35 65 34
161 2 2 93 5 34 65 64
162 2 2 93 5 35 36 66
163 2 2 93 5 65 35 66
164 2 2 93 5 36 37 67
165 2 2 93 5 36 67 66
166 2 2 93 5 37 38 68
167 2 2 93 5 37 68 67
168 2 2 93 5 38 39 69
169 2 2 93 5 38 69 68
170 2 2 93 5 70 69 39
171 2 2 93 6 56 57 177
172 2 2 93 6 73 72 177
173 2 2 93 6 72 15 178
174 2 2 93 6 9 56 178
175 2 2 93 6 57 58 179
176 2 2 93 6 74 73 179
177 2 2 93 6 58 10 180
178 2 2 93 6 11 74 180
179 2 2 93 6 15 9 178
180 2 2 93 6 73 57 179
181 2 2 93 6 58 74 179
182 2 2 93 6 10 11 180
183 2 2 93 6 72 56 177
184 2 2 93 6 56 72 178
185 2 2 93 6 57 73 177
186 2 2 93 6 74 58 180
187 2 2 1 7 76 42 183
188 2 2 1 7 181 182 187
189 2 2 1 7 183 182 185
190 2 2 1 7 77 76 183
191 2 2 1 7 182 44 187
192 2 2 1 7 42 43 183
193 2 2 1 7 77 183 185
194 2 2 1 7 78 77 185
195 2 2 1 7 41 42 184
196 2 2 1 7 76 75 184
197 2 2 1 7 43 44 182
198 2 2 1 7 16 78 186
199 2 2 1 7 44 6 187
200 2 2 1 7 42 76 184
201 2 2 1 7 5 41 188
202 2 2 1 7 75 12 188
203 2 2 1 7 79 80 181
204 2 2 1 7 75 41 184
205 2 2 1 7 185 181 186
206 2 2 1 7 182 181 185
207 2 2 1 7 43 182 183
208 2 2 1 7 12 5 188
209 2 2 1 7 41 75 188
210 2 2 1 7 79 181 187
211 2 2 1 7 181 80 186
212 2 2 1 7 6 79 187
213 2 2 1 7 80 16 186
214 2 2 1 7 78 185 186
215 2 2 1 8 17 8 55
216 2 2 1 8 81 9 15
217 2 2 1 8 55 9 81
218 2 2 1 8 17 55 81
219 2 2 2 9 82 79 45
220 2 2 2 9 83 84 80
221 2 2 2 9 79 6 45
222 2 2 2 9 45 7 82
223 2 2 2 9 80 84 16
224 2 2 2 9 84 83 18
225 2 2 2 9 80 79 82
226 2 2 2 9 83 80 82
227 2 2 93 10 46 189 200
228 2 2 93 10 86 190 191
229 2 2 93 10 189 46 190
230 2 2 93 10 86 85 201
231 2 2 93 10 85 18 199
232 2 2 93 10 7 46 200
233 2 2 93 10 48 49 192
234 2 2 93 10 88 87 192
235 2 2 93 10 190 86 201
236 2 2 93 10 190 47 191
237 2 2 93 10 46 47 190
238 2 2 93 10 51 52 193
239 2 2 93 10 91 90 193
240 2 2 93 10 54 8 195
241 2 2 93 10 17 93 195
242 2 2 93 10 49 50 194
243 2 2 93 10 89 88 194
244 2 2 93 10 53 54 197
245 2 2 93 10 93 92 197
246 2 2 93 10 50 51 196
247 2 2 93 10 90 89 196
248 2 2 93 10 52 53 198
249 2 2 93 10 92 91 198
250 2 2 93 10 47 48 191
251 2 2 93 10 87 86 191
252 2 2 93 10 48 87 191
253 2 2 93 10 87 48 192
254 2 2 93 10 83 82 189
255 2 2 93 10 189 190 201
256 2 2 93 10 49 88 192
257 2 2 93 10 8 17 195
258 2 2 93 10 52 91 193
259 2 2 93 10 92 53 197
260 2 2 93 10 53 92 198
261 2 2 93 10 88 49 194
262 2 2 93 10 50 89 194
263 2 2 93 10 89 50 196
264 2 2 93 10 90 51 193
265 2 2 93 10 51 90 196
266 2 2 93 10 93 54 195
267 2 2 93 10 54 93 197
268 2 2 93 10 91 52 198
269 2 2 93 10 18 83 199
270 2 2 93 10 82 7 200
271 2 2 93 10 83 189 199
272 2 2 93 10 189 82 200
273 2 2 93 10 199 189 201
274 2 2 93 10 85 199 201
275 2 2 93 11 71 202 3
276 2 2 93 11 14 202 71
277 2 2 93 11 94 202 14
278 2 2 93 11 3 202 60
279 2 2 93 11 11 202 94
280 2 2 93 11 60 202 11
281 2 2 93 12 4 203 62
282 2 2 93 12 62 203 13
283 2 2 93 12 61 203 4
284 2 2 93 12 13 203 95
285 2 2 93 12 95 203 12
286 2 2 93 12 12 203 61
287 2 2 93 13 107 233 20
288 2 2 93 13 19 232 98
289 2 2 93 13 204 210 116
290 2 2 93 13 110 21 101
291 2 2 93 13 112 69 113
292 2 2 93 13 124 64 125
293 2 2 93 13 119 215 120
294 2 2 93 13 117 214 118
295 2 2 93 13 127 231 23
296 2 2 93 13 211 238 217
297 2 2 93 13 112 68 69
298 2 2 93 13 125 64 65
299 2 2 93 13 124 221 64
300 2 2 93 13 69 222 113
301 2 2 93 13 102 223 216
302 2 2 93 13 20 233 106
303 2 2 93 13 99 232 19
304 2 2 93 13 223 231 227
305 2 2 93 13 101 224 110
306 2 2 93 13 23 231 104
307 2 2 93 13 216 224 102
308 2 2 93 13 125 225 218
309 2 2 93 13 217 226 112
310 2 2 93 13 64 221 63
311 2 2 93 13 70 222 69
312 2 2 93 13 215 235 226
313 2 2 93 13 225 234 214
314 2 2 93 13 104 105 23
315 2 2 93 13 101 21 100
316 2 2 93 13 125 218 126
317 2 2 93 13 111 217 112
318 2 2 93 13 227 231 127
319 2 2 93 13 68 226 67
320 2 2 93 13 66 225 65
321 2 2 93 13 121 238 205
322 2 2 93 13 211 217 111
323 2 2 93 13 211 230 207
324 2 2 93 13 207 230 216
325 2 2 93 13 219 233 107
326 2 2 93 13 98 232 220
327 2 2 93 13 204 212 210
328 2 2 93 13 108 219 107
329 2 2 93 13 98 220 97
330 2 2 93 13 65 225 125
331 2 2 93 13 112 226 68
332 2 2 93 13 103 223 102
333 2 2 93 13 217 238 209
334 2 2 93 13 216 230 224
335 2 2 93 13 126 218 212
336 2 2 93 13 226 235 67
337 2 2 93 13 66 234 225
338 2 2 93 13 119 235 215
339 2 2 93 13 214 234 118
340 2 2 93 13 114 220 115
341 2 2 93 13 122 219 123
342 2 2 93 13 212 218 210
343 2 2 93 13 106 236 105
344 2 2 93 13 100 237 99
345 2 2 93 13 123 221 124
346 2 2 93 13 113 222 114
347 2 2 93 13 206 227 212
348 2 2 93 13 111 230 211
349 2 2 93 13 102 224 101
350 2 2 93 13 109 239 229
351 2 2 93 13 228 240 96
352 2 2 93 13 224 230 110
353 2 2 93 13 109 229 108
354 2 2 93 13 97 228 96
355 2 2 93 13 208 227 206
356 2 2 93 13 229 239 221
357 2 2 93 13 222 240 228
358 2 2 93 13 63 239 14
359 2 2 93 13 13 240 70
360 2 2 93 13 114 228 220
361 2 2 93 13 219 229 123
362 2 2 93 13 110 230 111
363 2 2 93 13 126 227 127
364 2 2 93 13 108 229 219
365 2 2 93 13 220 228 97
366 2 2 93 13 104 231 103
367 2 2 93 13 105 236 23
368 2 2 93 13 21 237 100
369 2 2 93 13 99 237 232
370 2 2 93 13 233 236 106
371 2 2 93 13 222 228 114
372 2 2 93 13 123 229 221
373 2 2 93 13 22 204 116
374 2 2 93 13 220 232 115
375 2 2 93 13 122 233 219
376 2 2 93 13 205 211 207
377 2 2 93 13 216 223 208
378 2 2 93 13 205 238 211
379 2 2 93 13 207 216 208
380 2 2 93 13 116 210 117
381 2 2 93 13 120 209 121
382 2 2 93 13 212 227 126
383 2 2 93 13 115 237 21
384 2 2 93 13 23 236 122
385 2 2 93 13 96 240 13
386 2 2 93 13 14 239 109
387 2 2 93 13 206 212 204
388 2 2 93 13 207 208 206
389 2 2 93 13 103 231 223
390 2 2 93 13 205 207 206
391 2 2 93 13 22 205 204
392 2 2 93 13 118 213 119
393 2 2 93 13 232 237 115
394 2 2 93 13 122 236 233
395 2 2 93 13 209 238 121
396 2 2 93 13 205 206 204
397 2 2 93 13 215 226 217
398 2 2 93 13 218 225 214
399 2 2 93 13 118 234 213
400 2 2 93 13 213 235 119
401 2 2 93 13 221 239 63
402 2 2 93 13 70 240 222
403 2 2 93 13 210 214 117
404 2 2 93 13 120 215 209
405 2 2 93 13 215 217 209
406 2 2 93 13 210 218 214
407 2 2 93 13 121 205 22
408 2 2 93 13 67 213 66
409 2 2 93 13 213 234 66
410 2 2 93 13 67 235 213
411 2 2 93 13 223 227 208
412 2 2 93 14 125 241 124
413 2 2 93 14 126 241 125
414 2 2 93 14 127 241 126
415 2 2 93 14 124 241 123
416 2 2 93 14 23 241 127
417 2 2 93 14 123 241 122
418 2 2 93 14 122 241 23
419 2 2 93 15 113 242 112
420 2 2 93 15 114 242 113
421 2 2 93 15 112 242 111
422 2 2 93 15 115 242 114
423 2 2 93 15 111 242 110
424 2 2 93 15 21 242 115
425 2 2 93 15 110 242 21
426 2 2 93 16 120 243 119
427 2 2 93 16 121 243 120
428 2 2 93 16 119 243 118
429 2 2 93 16 22 243 121
430 2 2 93 16 116 243 22
431 2 2 93 16 118 243 117
432 2 2 93 16 117 243 116
433 2 2 93 17 128 72 107
434 2 2 93 17 74 94 109
435 2 2 93 17 94 74 11
436 2 2 93 17 109 94 14
437 2 2 93 17 128 15 72
438 2 2 93 17 107 20 128
439 2 2 93 17 107 72 73
440 2 2 93 17 74 109 73
441 2 2 93 17 107 73 108
442 2 2 93 17 109 108 73
443 2 2 93 18 19 98 78
444 2 2 93 18 97 75 76
445 2 2 93 18 98 97 76
446 2 2 93 18 96 12 75
447 2 2 93 18 97 96 75
448 2 2 93 18 77 98 76
449 2 2 93 18 78 98 77
450 2 2 93 18 19 78 129
451 2 2 93 18 95 12 96
452 2 2 93 18 13 95 96
453 2 2 93 18 129 78 16
454 2 2 93 19 17 244 130
455 2 2 93 19 130 244 20
456 2 2 93 19 81 244 17
457 2 2 93 19 20 244 128
458 2 2 93 19 128 244 15
459 2 2 93 19 15 244 81
460 2 2 93 20 16 245 129
461 2 2 93 20 129 245 19
462 2 2 93 20 84 245 16
463 2 2 93 20 19 245 131
464 2 2 93 20 131 245 18
465 2 2 93 20 18 245 84
466 2 2 93 21 99 19 85
467 2 2 93 21 100 87 88
468 2 2 93 21 100 99 87
469 2 2 93 21 101 88 89
470 2 2 93 21 100 88 101
471 2 2 93 21 102 89 90
472 2 2 93 21 101 89 102
473 2 2 93 21 91 103 90
474 2 2 93 21 102 90 103
475 2 2 93 21 104 91 92
476 2 2 93 21 103 91 104
477 2 2 93 21 105 92 93
478 2 2 93 21 104 92 105
479 2 2 93 21 17 106 93
480 2 2 93 21 106 105 93
481 2 2 93 21 99 86 87
482 2 2 93 21 99 85 86
483 2 2 93 21 131 85 19
484 2 2 93 21 17 130 106
485 2 2 93 21 131 18 85
486 2 2 93 21 106 130 20
$EndElements
