$MeshFormat
2.2 0 8
$EndMeshFormat
$PhysicalNames
3
2 1 "woofers"
2 2 "bmr"
2 3 "enclosure"
$EndPhysicalNames
$Nodes
256
1 -0.1 0.25 0
2 -0.1 0.25 0.05
3 -0.1 -0.25 0.05
4 -0.1 -0.25 0
5 0.1 0.25 0
6 0.1 0.25 0.05
7 0.1 -0.25 0.05
8 0.1 -0.25 0
9 0.0525 -0.12 0.05
10 -0.034 0 0.05
11 0.0525 0.12 0.05
12 0.0525 -0.12 0.049
13 -0.034 0 0.049
14 0.0525 0.12 0.049
15 -0.1 0.2 0.05
16 -0.1 0.1499999999999998 0.05
17 -0.1 0.09999999999999981 0.05
18 -0.1 0.04999999999999985 0.05
19 -0.1 -1.665334536937735e-16 0.05
20 -0.1 -0.05000000000000016 0.05
21 -0.1 -0.1000000000000001 0.05
22 -0.1 -0.1500000000000001 0.05
23 -0.1 -0.2000000000000001 0.05
24 -0.1 0.2 0
25 -0.1 0.1499999999999998 0
26 -0.1 0.09999999999999981 0
27 -0.1 0.04999999999999985 0
28 -0.1 -1.665334536937735e-16 0
29 -0.1 -0.05000000000000016 0
30 -0.1 -0.1000000000000001 0
31 -0.1 -0.1500000000000001 0
32 -0.1 -0.2000000000000001 0
33 0.04999999999999997 0.25 0.05
34 -2.775557561562891e-17 0.25 0.05
35 -0.05000000000000004 0.25 0.05
36 0.04999999999999997 0.25 0
37 -2.775557561562891e-17 0.25 0
38 -0.05000000000000004 0.25 0
39 -0.04999999999999997 -0.25 0.05
40 2.775557561562891e-17 -0.25 0.05
41 0.05000000000000004 -0.25 0.05
42 -0.04999999999999997 -0.25 0
43 2.775557561562891e-17 -0.25 0
44 0.05000000000000004 -0.25 0
45 0.1 -0.2 0
46 0.1 -0.1499999999999998 0
47 0.1 -0.09999999999999981 0
48 0.1 -0.04999999999999985 0
49 0.1 1.665334536937735e-16 0
50 0.1 0.05000000000000016 0
51 0.1 0.1000000000000001 0
52 0.1 0.1500000000000001 0
53 0.1 0.2000000000000001 0
54 0.1 -0.2 0.05
55 0.1 -0.1499999999999998 0.05
56 0.1 -0.09999999999999981 0.05
57 0.1 -0.04999999999999985 0.05
58 0.1 1.665334536937735e-16 0.05
59 0.1 0.05000000000000016 0.05
60 0.1 0.1000000000000001 0.05
61 0.1 0.1500000000000001 0.05
62 0.1 0.2000000000000001 0.05
63 0.03273321459758358 -0.07895384717042848 0.05
64 -0.01168234903270628 -0.06881628461045421 0.05
65 -0.04730086556487683 -0.09722110369632783 0.05
66 -0.04730086556487725 -0.1427788963036713 0.05
67 -0.01168234903270706 -0.1711837153895456 0.05
68 0.03273321459758328 -0.1610461528295717 0.05
69 -0.04002416317026028 0.01250930371948849 0.05
70 -0.05356033494330107 0.01559884659490917 0.05
71 -0.06441550188643874 0.006942139825880868 0.05
72 -0.06441550188643867 -0.006942139825881011 0.05
73 -0.05356033494330097 -0.01559884659490919 0.05
74 -0.04002416317026024 -0.01250930371948845 0.05
75 0.03273321459758358 0.1610461528295715 0.05
76 -0.01168234903270628 0.1711837153895458 0.05
77 -0.04730086556487683 0.1427788963036722 0.05
78 -0.04730086556487725 0.09722110369632871 0.05
79 -0.01168234903270706 0.06881628461045439 0.05
80 0.03273321459758328 0.07895384717042825 0.05
81 0.03273321459758358 -0.07895384717042848 0.049
82 -0.01168234903270628 -0.06881628461045421 0.049
83 -0.04730086556487683 -0.09722110369632783 0.049
84 -0.04730086556487725 -0.1427788963036713 0.049
85 -0.01168234903270706 -0.1711837153895456 0.049
86 0.03273321459758328 -0.1610461528295717 0.049
87 -0.03496491806742547 0.005472322293210695 0.049
88 -0.03774328891009635 0.01028460175498462 0.049
89 -0.04199999999999999 0.01385640646055101 0.049
90 -0.0472216291573291 0.01575692404819532 0.049
91 -0.05277837084267087 0.01575692404819533 0.049
92 -0.05799999999999998 0.01385640646055103 0.049
93 -0.06225671108990363 0.01028460175498465 0.049
94 -0.06503508193257453 0.005472322293210736 0.049
95 -0.066 3.038114430903977e-17 0.049
96 -0.06503508193257454 -0.005472322293210686 0.049
97 -0.06225671108990365 -0.01028460175498463 0.049
98 -0.058 -0.01385640646055102 0.049
99 -0.05277837084267088 -0.01575692404819533 0.049
100 -0.04722162915732908 -0.01575692404819532 0.049
101 -0.04199999999999996 -0.013856406460551 0.049
102 -0.03774328891009632 -0.01028460175498459 0.049
103 -0.03496491806742547 -0.005472322293210685 0.049
104 0.03273321459758358 0.1610461528295715 0.049
105 -0.01168234903270628 0.1711837153895458 0.049
106 -0.04730086556487683 0.1427788963036722 0.049
107 -0.04730086556487725 0.09722110369632871 0.049
108 -0.01168234903270706 0.06881628461045439 0.049
109 0.03273321459758328 0.07895384717042825 0.049
110 -0.1 0.1749999999999999 0.025
111 -0.1 -0.1249999999999999 0.025
112 -0.1 0.02499999999999988 0.025
113 -0.1 -0.02500000000000013 0.02500000000000003
114 -0.1 -0.1750000000000002 0.02500000000000003
115 -0.1 0.225 0.025
116 -0.1 -0.2249999999999999 0.025
117 -0.1 0.1249999999999998 0.025
118 -0.1 -0.07500000000000012 0.025
119 -0.1 0.07499999999999982 0.025
120 -0.02500000000000005 0.25 0.025
121 -0.07500000000000004 0.25 0.02500000000000002
122 0.07499999999999998 0.25 0.025
123 0.02499999999999997 0.25 0.025
124 0.02500000000000005 -0.25 0.02500000000000001
125 -0.07499999999999998 -0.25 0.025
126 0.07500000000000004 -0.25 0.02500000000000002
127 -0.02499999999999997 -0.25 0.025
128 -0.05669872981077811 0.1249999999999998 0
129 -0.05614416914450589 -0.07893974716363181 0
130 -0.05881728565666484 0.02499999999999985 0
131 0.05669872981077811 -0.1249999999999998 0
132 0.05580928368792006 0.08019863968520137 0
133 0.0566987298107781 -0.02499999999999984 0
134 -0.02876353791525194 -0.2107463216378493 0
135 0.02876353791525194 0.2107463216378493 0
136 0.05766139774720843 -0.174788131535956 0
137 0.01648208712475019 -0.1501023374318007 0
138 0.01294867457058298 -0.09481597994791299 0
139 -0.02990381056766571 -0.1249999999999999 0
140 -0.05766139774720844 0.174788131535956 0
141 -0.0164820871247502 0.1501023374318007 0
142 -0.01315765686377314 0.09607069543144986 0
143 0.02949420210752295 0.1252035500614803 0
144 -0.05669872981077809 -0.02500000000000014 0
145 -0.0133974596215562 -1.462053692232276e-16 0
146 -0.01683132638821377 -0.05444824396608765 0
147 0.0587424881481693 -0.07413599665798534 0
148 -0.05913041117134878 0.07434511590524151 0
149 0.05866904463618852 0.0258664399475337 0
150 0.01339745962155625 0.05000000000000013 0
151 0.02044925746979467 -0.2040271379242427 0
152 -0.02044925746979467 0.2040271379242427 0
153 -0.05930092060380557 -0.1716438687222979 0
154 0.05925912382215835 0.1716646391367347 0
155 -0.02622107073835734 0.04908316226733824 0
156 0.02829531382876867 0.0001732879895067999 0
157 0.02107607005808818 -0.04137115543041319 0
158 -0.06941006488609862 -0.1250000000000001 0
159 0.06941006488609862 0.1250000000000001 0
160 0.01954424481516061 0.1694015121274601 0
161 -0.01620738489843567 -0.1723039331432381 0
162 0.063397459621556 -0.213397459621556 0
163 -0.06339745962155602 0.213397459621556 0
164 -0.06468307980940996 -0.21438766809768 0
165 0.0646809038003696 0.2143887494395394 0
166 -0.02204634925988025 -0.08860952220359092 0
167 0.02125492092934171 0.08639047779640907 0
168 -0.02622993385342852 0.00997042406133627 0.05
169 -0.02024679202716514 -0.006887271124243322 0.05
170 -0.009222066632770745 0.01293318249079232 0.05
171 0.005551444760567559 -0.008644994441636406 0.05
172 0.02069560415510597 0.0156059097036941 0.05
173 0.03756831372796455 -0.01367236013375887 0.05
174 -0.03298408065928441 0.02447021429986024 0.05
175 -0.05017382209862345 -0.06077709688488837 0.05
176 -0.04277132415932054 -0.02430094527449466 0.05
177 -0.0117913825928723 -0.03032099627559529 0.05
178 -0.05915966402448762 -0.03026445380477348 0.05
179 -0.0732182977960127 0.02340106409516892 0.05
180 -0.0522215647733965 0.03421138396823779 0.05
181 0.02620770793331665 0.2091519017140223 0.05
182 0.02620770793331629 -0.2091519017140225 0.05
183 -0.05718720882471998 0.1843945128693301 0.05
184 -0.0571872088247206 -0.1843945128693297 0.05
185 0.0585819052090527 0.01644700865655128 0.05
186 -0.03628702215158239 0.05375973011324832 0.05
187 -0.06598762627001534 0.05929473343307792 0.05
188 -0.03389680546624114 -0.0396706546320005 0.05
189 -0.00982029811368898 0.03903509144835656 0.05
190 0.059126588094045 -0.1930253798721138 0.05
191 0.05912658809404549 0.193025379872113 0.05
192 -0.07643964077811184 -1.383349683792732e-16 0.05
193 -0.07884539070502736 -0.02108829654319053 0.05
194 -0.02712731483443873 -0.2141386948425698 0.05
195 -0.02712731483443849 0.2141386948425699 0.05
196 0.01714403988728509 -0.04130955372693532 0.05
197 0.05048499786317344 -0.04744883972973868 0.05
198 0.02153877859903946 0.04824668572460933 0.05
199 0.05705346666997298 0.05346645451969132 0.05
200 0.06836882929006044 -0.07914237701233312 0.05
201 -0.07468645972152602 -0.07896328294171488 0.05
202 0.07166507131731695 -0.01999121296299659 0.05
203 -0.02830827865332025 -0.0233342600794916 0.05
204 0.06759231177389796 0.08495792130512753 0.05
205 -0.07257306730993289 -0.04821862603491348 0.05
206 -0.07010203908252112 -0.2201020390825211 0.05
207 -0.07010203908252129 0.2201020390825213 0.05
208 0.06887196053832566 -0.164814306540337 0.05
209 0.06887196053832581 0.1648143065403369 0.05
210 -0.07281613855194861 0.1206507705122871 0.05
211 -0.07287007581449957 -0.1183841775792225 0.05
212 0.07082789322772035 0.2225465652235135 0.05
213 0.07082789322772046 -0.2225465652235138 0.05
214 0.1 -0.1749999999999999 0.025
215 0.1 0.125 0.025
216 0.1 0.1750000000000002 0.025
217 0.1 -0.02499999999999988 0.02500000000000001
218 0.1 0.02500000000000013 0.02500000000000003
219 0.1 0.07500000000000007 0.025
220 0.1 0.2249999999999999 0.02500000000000005
221 0.1 -0.225 0.025
222 0.1 -0.1249999999999998 0.025
223 0.1 -0.07499999999999982 0.025
224 0.04730086556487693 -0.1427788963036719 0.04949999999999939
225 0.04730086556487693 0.09722110369632805 0.04949999999999939
226 -7.892991815694472e-17 -0.1199999999999999 0.049
227 -0.03907893771715903 -0.001702071835285279 0.049
228 -0.06077837084267088 0.001900517587644336 0.049
229 -0.04625671108990363 0.01028460175498463 0.049
230 -0.04999814510026698 -0.01108166378156045 0.049
231 -0.04296491806742543 -0.008384084167340301 0.049
232 -0.05427428915344247 0.01063588370615147 0.049
233 -0.05721845378952466 -0.008597257536182238 0.049
234 -0.04041601768803475 0.005631345170211711 0.049
235 -0.05423014846628925 -0.01161450513586352 0.049
236 -0.0524412502338331 -0.007266514733085745 0.049
237 -0.05513854563887424 -0.003545642478017679 0.049
238 -0.05021534438940721 -0.002645551577147008 0.049
239 -0.05290535191688346 0.001428293788413318 0.049
240 -0.04798214739772565 0.00177400424630364 0.049
241 -0.04429817229130685 -0.003059641037787254 0.049
242 -0.05040391134074816 0.006925099627137824 0.049
243 -0.05615031022821397 0.005506032262707163 0.049
244 -0.06051057975850342 -0.003657039460831587 0.049
245 -0.0474869544877858 -0.00705054983294945 0.049
246 -0.04250206347164909 0.001792224679383659 0.049
247 -0.06039275781198009 0.006493029355404797 0.049
248 -0.04534621990565267 0.005959376144648144 0.049
249 -0.05013355879772774 0.0120358592020616 0.049
250 -0.03981004701068262 -0.005780544217721621 0.049
251 -0.03774328891009636 0.002161188859898674 0.049
252 -0.04199999999999998 0.009534028740753663 0.049
253 -0.04574328891009632 -0.01169521760065233 0.049
254 -0.05821481365670803 0.009355190707959822 0.049
255 -0.05709663167702919 0.0003264323399831098 0.049
256 -7.806255641895632e-17 0.1200000000000001 0.049
$EndNodes
$Elements
508
1 2 2 3 1 16 15 110
2 2 2 3 1 24 25 110
3 2 2 3 1 4 3 116
4 2 2 3 1 1 24 115
5 2 2 3 1 15 2 115
6 2 2 3 1 19 18 112
7 2 2 3 1 20 113 118
8 2 2 3 1 27 28 112
9 2 2 3 1 19 28 113
10 2 2 3 1 22 21 111
11 2 2 3 1 23 22 114
12 2 2 3 1 31 22 111
13 2 2 3 1 22 31 114
14 2 2 3 1 113 29 118
15 2 2 3 1 30 31 111
16 2 2 3 1 31 32 114
17 2 2 3 1 17 16 117
18 2 2 3 1 25 16 110
19 2 2 3 1 16 25 117
20 2 2 3 1 20 19 113
21 2 2 3 1 25 26 117
22 2 2 3 1 117 26 119
23 2 2 3 1 2 1 115
24 2 2 3 1 15 24 110
25 2 2 3 1 24 15 115
26 2 2 3 1 17 117 119
27 2 2 3 1 28 19 112
28 2 2 3 1 28 29 113
29 2 2 3 1 3 23 116
30 2 2 3 1 32 4 116
31 2 2 3 1 21 20 118
32 2 2 3 1 29 30 118
33 2 2 3 1 18 17 119
34 2 2 3 1 26 27 119
35 2 2 3 1 112 18 119
36 2 2 3 1 27 112 119
37 2 2 3 1 111 21 118
38 2 2 3 1 30 111 118
39 2 2 3 1 23 114 116
40 2 2 3 1 114 32 116
41 2 2 3 2 1 2 121
42 2 2 3 2 5 36 122
43 2 2 3 2 35 34 120
44 2 2 3 2 37 38 120
45 2 2 3 2 33 6 122
46 2 2 3 2 34 37 120
47 2 2 3 2 35 120 121
48 2 2 3 2 120 38 121
49 2 2 3 2 6 5 122
50 2 2 3 2 36 33 122
51 2 2 3 2 33 36 123
52 2 2 3 2 37 34 123
53 2 2 3 2 34 33 123
54 2 2 3 2 36 37 123
55 2 2 3 2 38 1 121
56 2 2 3 2 2 35 121
57 2 2 3 3 41 40 124
58 2 2 3 3 4 42 125
59 2 2 3 3 8 7 126
60 2 2 3 3 43 44 124
61 2 2 3 3 39 3 125
62 2 2 3 3 40 43 124
63 2 2 3 3 124 44 126
64 2 2 3 3 3 4 125
65 2 2 3 3 42 39 125
66 2 2 3 3 39 42 127
67 2 2 3 3 43 40 127
68 2 2 3 3 41 124 126
69 2 2 3 3 40 39 127
70 2 2 3 3 42 43 127
71 2 2 3 3 7 41 126
72 2 2 3 3 44 8 126
73 2 2 3 4 145 156 157
74 2 2 3 4 146 145 157
75 2 2 3 4 141 152 160
76 2 2 3 4 137 151 161
77 2 2 3 4 141 140 152
78 2 2 3 4 137 136 151
79 2 2 3 4 151 134 161
80 2 2 3 4 152 135 160
81 2 2 3 4 143 154 159
82 2 2 3 4 139 153 158
83 2 2 3 4 150 145 155
84 2 2 3 4 145 150 156
85 2 2 3 4 132 143 159
86 2 2 3 4 129 139 158
87 2 2 3 4 138 146 157
88 2 2 3 4 142 150 155
89 2 2 3 4 154 143 160
90 2 2 3 4 153 139 161
91 2 2 3 4 25 24 140
92 2 2 3 4 46 45 136
93 2 2 3 4 131 138 147
94 2 2 3 4 28 27 130
95 2 2 3 4 29 28 144
96 2 2 3 4 129 29 144
97 2 2 3 4 49 48 133
98 2 2 3 4 144 145 146
99 2 2 3 4 128 141 142
100 2 2 3 4 129 144 146
101 2 2 3 4 131 137 138
102 2 2 3 4 26 25 128
103 2 2 3 4 47 46 131
104 2 2 3 4 47 131 147
105 2 2 3 4 128 142 148
106 2 2 3 4 144 130 145
107 2 2 3 4 26 128 148
108 2 2 3 4 130 27 148
109 2 2 3 4 28 130 144
110 2 2 3 4 30 29 129
111 2 2 3 4 37 36 135
112 2 2 3 4 43 42 134
113 2 2 3 4 133 48 147
114 2 2 3 4 50 49 149
115 2 2 3 4 49 133 149
116 2 2 3 4 51 50 132
117 2 2 3 4 132 50 149
118 2 2 3 4 128 25 140
119 2 2 3 4 27 26 148
120 2 2 3 4 48 47 147
121 2 2 3 4 128 140 141
122 2 2 3 4 132 149 150
123 2 2 3 4 138 137 139
124 2 2 3 4 142 141 143
125 2 2 3 4 131 46 136
126 2 2 3 4 131 136 137
127 2 2 3 4 139 129 166
128 2 2 3 4 150 142 167
129 2 2 3 4 143 132 167
130 2 2 3 4 146 138 166
131 2 2 3 4 44 43 151
132 2 2 3 4 38 37 152
133 2 2 3 4 37 135 152
134 2 2 3 4 43 134 151
135 2 2 3 4 32 31 153
136 2 2 3 4 53 52 154
137 2 2 3 4 147 138 157
138 2 2 3 4 51 132 159
139 2 2 3 4 145 130 155
140 2 2 3 4 148 142 155
141 2 2 3 4 30 129 158
142 2 2 3 4 150 149 156
143 2 2 3 4 45 8 162
144 2 2 3 4 24 1 163
145 2 2 3 4 1 38 163
146 2 2 3 4 8 44 162
147 2 2 3 4 42 4 164
148 2 2 3 4 36 5 165
149 2 2 3 4 4 32 164
150 2 2 3 4 5 53 165
151 2 2 3 4 153 31 158
152 2 2 3 4 154 52 159
153 2 2 3 4 143 141 160
154 2 2 3 4 139 137 161
155 2 2 3 4 44 151 162
156 2 2 3 4 38 152 163
157 2 2 3 4 156 133 157
158 2 2 3 4 149 133 156
159 2 2 3 4 52 51 159
160 2 2 3 4 130 148 155
161 2 2 3 4 31 30 158
162 2 2 3 4 133 147 157
163 2 2 3 4 135 36 165
164 2 2 3 4 134 42 164
165 2 2 3 4 140 24 163
166 2 2 3 4 136 45 162
167 2 2 3 4 129 146 166
168 2 2 3 4 142 143 167
169 2 2 3 4 138 139 166
170 2 2 3 4 132 150 167
171 2 2 3 4 151 136 162
172 2 2 3 4 152 140 163
173 2 2 3 4 135 154 160
174 2 2 3 4 134 153 161
175 2 2 3 4 153 134 164
176 2 2 3 4 154 135 165
177 2 2 3 4 32 153 164
178 2 2 3 4 53 154 165
179 2 2 3 5 20 193 19
180 2 2 3 5 179 192 71
181 2 2 3 5 77 183 16
182 2 2 3 5 22 184 66
183 2 2 3 5 170 174 168
184 2 2 3 5 17 187 78
185 2 2 3 5 178 188 176
186 2 2 3 5 61 11 60
187 2 2 3 5 9 55 56
188 2 2 3 5 61 209 11
189 2 2 3 5 9 208 55
190 2 2 3 5 16 183 15
191 2 2 3 5 23 184 22
192 2 2 3 5 174 180 70
193 2 2 3 5 74 203 169
194 2 2 3 5 63 196 64
195 2 2 3 5 179 187 18
196 2 2 3 5 182 213 190
197 2 2 3 5 191 212 181
198 2 2 3 5 78 186 79
199 2 2 3 5 41 213 182
200 2 2 3 5 181 212 33
201 2 2 3 5 64 175 65
202 2 2 3 5 78 187 186
203 2 2 3 5 191 209 62
204 2 2 3 5 54 208 190
205 2 2 3 5 185 198 172
206 2 2 3 5 34 181 33
207 2 2 3 5 41 182 40
208 2 2 3 5 62 209 61
209 2 2 3 5 55 208 54
210 2 2 3 5 59 185 58
211 2 2 3 5 18 187 17
212 2 2 3 5 64 196 177
213 2 2 3 5 64 188 175
214 2 2 3 5 172 189 170
215 2 2 3 5 72 193 178
216 2 2 3 5 59 199 185
217 2 2 3 5 177 188 64
218 2 2 3 5 67 182 68
219 2 2 3 5 75 181 76
220 2 2 3 5 66 184 67
221 2 2 3 5 76 183 77
222 2 2 3 5 185 199 198
223 2 2 3 5 78 210 17
224 2 2 3 5 63 197 196
225 2 2 3 5 175 188 178
226 2 2 3 5 193 205 178
227 2 2 3 5 16 210 77
228 2 2 3 5 66 211 22
229 2 2 3 5 56 200 9
230 2 2 3 5 175 201 65
231 2 2 3 5 172 198 189
232 2 2 3 5 170 189 174
233 2 2 3 5 11 204 60
234 2 2 3 5 35 195 34
235 2 2 3 5 40 194 39
236 2 2 3 5 197 200 57
237 2 2 3 5 60 204 59
238 2 2 3 5 57 202 197
239 2 2 3 5 67 194 182
240 2 2 3 5 181 195 76
241 2 2 3 5 9 200 63
242 2 2 3 5 184 194 67
243 2 2 3 5 76 195 183
244 2 2 3 5 21 201 20
245 2 2 3 5 34 195 181
246 2 2 3 5 182 194 40
247 2 2 3 5 79 198 80
248 2 2 3 5 182 190 68
249 2 2 3 5 75 191 181
250 2 2 3 5 59 204 199
251 2 2 3 5 57 200 56
252 2 2 3 5 35 207 195
253 2 2 3 5 194 206 39
254 2 2 3 5 173 185 172
255 2 2 3 5 58 202 57
256 2 2 3 5 73 176 74
257 2 2 3 5 10 168 69
258 2 2 3 5 20 205 193
259 2 2 3 5 195 207 183
260 2 2 3 5 184 206 194
261 2 2 3 5 169 177 171
262 2 2 3 5 169 203 177
263 2 2 3 5 171 173 172
264 2 2 3 5 22 211 21
265 2 2 3 5 17 210 16
266 2 2 3 5 39 206 3
267 2 2 3 5 3 206 23
268 2 2 3 5 15 207 2
269 2 2 3 5 2 207 35
270 2 2 3 5 174 189 186
271 2 2 3 5 80 204 11
272 2 2 3 5 174 186 180
273 2 2 3 5 33 212 6
274 2 2 3 5 54 213 7
275 2 2 3 5 6 212 62
276 2 2 3 5 7 213 41
277 2 2 3 5 173 202 185
278 2 2 3 5 185 202 58
279 2 2 3 5 68 208 9
280 2 2 3 5 11 209 75
281 2 2 3 5 178 205 175
282 2 2 3 5 77 210 78
283 2 2 3 5 65 211 66
284 2 2 3 5 189 198 79
285 2 2 3 5 196 197 173
286 2 2 3 5 171 196 173
287 2 2 3 5 71 192 72
288 2 2 3 5 171 172 170
289 2 2 3 5 183 207 15
290 2 2 3 5 23 206 184
291 2 2 3 5 70 179 71
292 2 2 3 5 19 193 192
293 2 2 3 5 190 208 68
294 2 2 3 5 75 209 191
295 2 2 3 5 177 196 171
296 2 2 3 5 176 203 74
297 2 2 3 5 168 174 69
298 2 2 3 5 201 211 65
299 2 2 3 5 169 171 170
300 2 2 3 5 73 178 176
301 2 2 3 5 10 169 168
302 2 2 3 5 175 205 201
303 2 2 3 5 197 202 173
304 2 2 3 5 186 189 79
305 2 2 3 5 63 200 197
306 2 2 3 5 169 170 168
307 2 2 3 5 21 211 201
308 2 2 3 5 198 199 80
309 2 2 3 5 70 180 179
310 2 2 3 5 186 187 180
311 2 2 3 5 201 205 20
312 2 2 3 5 199 204 80
313 2 2 3 5 190 213 54
314 2 2 3 5 62 212 191
315 2 2 3 5 192 193 72
316 2 2 3 5 177 203 188
317 2 2 3 5 188 203 176
318 2 2 3 5 74 169 10
319 2 2 3 5 19 179 18
320 2 2 3 5 19 192 179
321 2 2 3 5 69 174 70
322 2 2 3 5 72 178 73
323 2 2 3 5 180 187 179
324 2 2 3 6 45 46 214
325 2 2 3 6 55 54 214
326 2 2 3 6 5 6 220
327 2 2 3 6 59 218 219
328 2 2 3 6 58 57 217
329 2 2 3 6 54 7 221
330 2 2 3 6 8 45 221
331 2 2 3 6 48 49 217
332 2 2 3 6 58 49 218
333 2 2 3 6 218 50 219
334 2 2 3 6 51 52 215
335 2 2 3 6 52 53 216
336 2 2 3 6 52 61 215
337 2 2 3 6 61 52 216
338 2 2 3 6 61 60 215
339 2 2 3 6 62 61 216
340 2 2 3 6 46 47 222
341 2 2 3 6 46 55 214
342 2 2 3 6 55 46 222
343 2 2 3 6 222 47 223
344 2 2 3 6 56 55 222
345 2 2 3 6 56 222 223
346 2 2 3 6 59 58 218
347 2 2 3 6 7 8 221
348 2 2 3 6 54 45 214
349 2 2 3 6 45 54 221
350 2 2 3 6 49 50 218
351 2 2 3 6 49 58 217
352 2 2 3 6 53 5 220
353 2 2 3 6 6 62 220
354 2 2 3 6 50 51 219
355 2 2 3 6 60 59 219
356 2 2 3 6 47 48 223
357 2 2 3 6 48 217 223
358 2 2 3 6 57 56 223
359 2 2 3 6 217 57 223
360 2 2 3 6 51 215 219
361 2 2 3 6 215 60 219
362 2 2 3 6 216 53 220
363 2 2 3 6 62 216 220
364 2 2 3 7 12 86 224
365 2 2 3 7 68 9 224
366 2 2 3 7 86 68 224
367 2 2 3 7 9 63 12
368 2 2 3 7 12 63 81
369 2 2 3 7 63 64 82
370 2 2 3 7 81 63 82
371 2 2 3 7 82 64 65
372 2 2 3 7 65 66 83
373 2 2 3 7 82 65 83
374 2 2 3 7 66 67 85
375 2 2 3 7 83 66 84
376 2 2 3 7 84 66 85
377 2 2 3 7 67 68 86
378 2 2 3 7 67 86 85
379 2 2 3 7 9 12 224
380 2 2 3 8 74 10 103
381 2 2 3 8 92 71 93
382 2 2 3 8 72 98 97
383 2 2 3 8 70 71 92
384 2 2 3 8 72 73 98
385 2 2 3 8 71 72 95
386 2 2 3 8 69 70 90
387 2 2 3 8 73 74 100
388 2 2 3 8 10 69 87
389 2 2 3 8 87 69 88
390 2 2 3 8 74 103 102
391 2 2 3 8 100 74 101
392 2 2 3 8 69 90 89
393 2 2 3 8 95 72 96
394 2 2 3 8 71 95 94
395 2 2 3 8 101 74 102
396 2 2 3 8 88 69 89
397 2 2 3 8 96 72 97
398 2 2 3 8 93 71 94
399 2 2 3 8 90 70 91
400 2 2 3 8 73 100 99
401 2 2 3 8 91 70 92
402 2 2 3 8 98 73 99
403 2 2 3 8 10 87 13
404 2 2 3 8 103 10 13
405 2 2 3 9 14 109 225
406 2 2 3 9 80 11 225
407 2 2 3 9 109 80 225
408 2 2 3 9 11 75 14
409 2 2 3 9 14 75 104
410 2 2 3 9 75 76 105
411 2 2 3 9 75 105 104
412 2 2 3 9 76 77 106
413 2 2 3 9 105 76 106
414 2 2 3 9 77 78 107
415 2 2 3 9 77 107 106
416 2 2 3 9 78 79 108
417 2 2 3 9 107 78 108
418 2 2 3 9 79 80 109
419 2 2 3 9 108 79 109
420 2 2 3 9 11 14 225
421 2 2 1 10 85 226 84
422 2 2 1 10 86 226 85
423 2 2 1 10 84 226 83
424 2 2 1 10 12 226 86
425 2 2 1 10 83 226 82
426 2 2 1 10 81 226 12
427 2 2 1 10 82 226 81
428 2 2 2 11 95 244 228
429 2 2 2 11 96 244 95
430 2 2 2 11 231 250 241
431 2 2 2 11 244 255 228
432 2 2 2 11 241 250 227
433 2 2 2 11 229 249 242
434 2 2 2 11 242 248 229
435 2 2 2 11 228 255 243
436 2 2 2 11 242 249 232
437 2 2 2 11 95 228 94
438 2 2 2 11 90 229 89
439 2 2 2 11 102 231 101
440 2 2 2 11 98 233 97
441 2 2 2 11 13 227 103
442 2 2 2 11 100 230 99
443 2 2 2 11 88 234 87
444 2 2 2 11 92 232 91
445 2 2 2 11 241 245 231
446 2 2 2 11 238 240 239
447 2 2 2 11 238 241 240
448 2 2 2 11 238 239 237
449 2 2 2 11 243 247 228
450 2 2 2 11 233 244 97
451 2 2 2 11 97 244 96
452 2 2 2 11 236 238 237
453 2 2 2 11 227 251 246
454 2 2 2 11 236 245 238
455 2 2 2 11 227 246 241
456 2 2 2 11 237 255 244
457 2 2 2 11 230 245 236
458 2 2 2 11 230 253 245
459 2 2 2 11 240 242 239
460 2 2 2 11 240 248 242
461 2 2 2 11 238 245 241
462 2 2 2 11 236 237 233
463 2 2 2 11 246 251 234
464 2 2 2 11 243 255 239
465 2 2 2 11 94 247 93
466 2 2 2 11 228 247 94
467 2 2 2 11 245 253 231
468 2 2 2 11 237 244 233
469 2 2 2 11 241 246 240
470 2 2 2 11 230 235 99
471 2 2 2 11 98 235 233
472 2 2 2 11 102 250 231
473 2 2 2 11 99 235 98
474 2 2 2 11 87 251 13
475 2 2 2 11 91 249 90
476 2 2 2 11 89 252 88
477 2 2 2 11 232 249 91
478 2 2 2 11 227 250 103
479 2 2 2 11 90 249 229
480 2 2 2 11 100 253 230
481 2 2 2 11 88 252 234
482 2 2 2 11 229 252 89
483 2 2 2 11 13 251 227
484 2 2 2 11 101 253 100
485 2 2 2 11 231 253 101
486 2 2 2 11 103 250 102
487 2 2 2 11 234 251 87
488 2 2 2 11 93 254 92
489 2 2 2 11 232 243 242
490 2 2 2 11 242 243 239
491 2 2 2 11 92 254 232
492 2 2 2 11 234 252 248
493 2 2 2 11 239 255 237
494 2 2 2 11 234 248 246
495 2 2 2 11 248 252 229
496 2 2 2 11 232 254 243
497 2 2 2 11 246 248 240
498 2 2 2 11 247 254 93
499 2 2 2 11 235 236 233
500 2 2 2 11 230 236 235
501 2 2 2 11 243 254 247
502 2 2 1 12 104 256 14
503 2 2 1 12 14 256 109
504 2 2 1 12 105 256 104
505 2 2 1 12 109 256 108
506 2 2 1 12 106 256 105
507 2 2 1 12 108 256 107
508 2 2 1 12 107 256 106
$EndElements
